<?xml version="1.0" encoding="UTF-8" standalone="no"?>
<svg
   version="1.1"
   width="996.11523"
   height="1024.326"
   viewBox="0 0 996.11523 1024.326"
   xmlns="http://www.w3.org/2000/svg"
   xmlns:svg="http://www.w3.org/2000/svg">
   <g
      transform="translate(-28,0.32610974)">
      <path
         d="m 28,1022.8474 c 0,-1.4877 33.087,-51.10955 40.69334,-61.02937 21.526261,-28.07352 50.21374,-53.78917 70.41409,-63.11969 18.386,-8.49246 25.6418,-11.69867 26.48431,-11.70294 0.49954,-0.003 4.28326,-1.31654 8.40826,-2.92001 7.14538,-2.77755 15.49894,-4.30517 30.11133,-5.50649 10.2437,-0.84216 42.30917,-7.98085 48.48244,-10.79358 3.11437,-1.419 3.23984,-1.89556 5.46257,-20.7473 3.04773,-25.84892 3.66531,-29.86698 6.30917,-41.04793 2.78754,-11.78859 8.1302,-29.04336 10.3083,-33.29197 1.39316,-2.71748 1.2177,-3.18241 -5.22647,-13.84905 -11.73758,-19.42847 -20.08483,-40.5757 -22.92897,-58.08907 -0.94883,-5.84262 -1.85275,-4.69232 -7.46514,9.5 -8.82554,22.31757 -24.81765,50.86328 -34.00483,60.69819 -4.28115,4.58298 -4.44971,3.84203 -1.95118,-8.57656 2.075,-10.3135 3.84668,-149.388 1.90278,-149.36578 -2.19144,0.025 -9.3373,19.66568 -12.55003,34.49415 -1.86518,8.60881 -4.10822,17.58148 -7.37456,29.5 -2.22697,8.12597 -7.12556,31.94468 -9.04911,44 -0.65819,4.125 -1.62332,9.525 -2.14474,12 -0.52142,2.475 -1.04558,13.83519 -1.1648,25.24486 -0.23457,22.44957 -0.22326,22.402 -4.11391,17.3011 C 149.96489,751.11034 145.10117,662.35566 157.7363,577.25 c 0.64891,-4.37081 -0.45203,-4.10609 -6.28886,1.51216 -20.81951,20.03983 -65.260582,52.75803 -67.974637,50.04398 C 81.996846,627.33018 121.13179,571.86265 135.54649,555 c 19.08096,-22.32135 21.79133,-26.7944 11.19691,-18.47878 -3.16613,2.48511 -5.64113,4.00323 -5.5,3.37358 0.95768,-4.2726 -3.05665,-1.25475 -11.19493,8.41602 -2.22666,2.64595 -4.04847,4.4377 -4.04847,3.98167 0,-0.78212 3.76192,-5.69875 11.31837,-14.79249 13.18009,-15.86147 18.02834,-23.6672 24.41017,-39.30062 18.57991,-45.51478 28.26353,-71.37029 30.786,-82.19938 9.76324,-41.91423 17.00177,-67.05356 22.45902,-78 1.63099,-3.27152 4.65719,-13.80615 7.46882,-26 C 239.30406,238.87208 274.53051,177.15544 333.94787,116.64274 381.279,68.439074 430.79846,41.786639 518.07489,17.541637 529.3087,14.420934 541.2,11.02699 544.5,9.9995401 599.51361,-7.1288655 692.37792,-2.3485924 736.8551,19.90119 742.38579,22.667923 742.95525,22.738881 765,23.408152 864.76223,26.436899 919.90291,52.79554 971.24818,122 986.16981,142.11175 1021,210.68904 1021,219.95653 c 0,0.91367 0.6607,2.53472 1.4682,3.60234 1.7941,2.37205 2.3351,498.23778 0.5456,500.02737 -4.0949,4.09489 -19.2747,87.07461 -24.04005,131.41376 -3.16288,29.42907 -2.69105,28.04673 -6.14379,18 -1.60665,-4.675 -3.78814,-12.55 -4.84776,-17.5 -1.05963,-4.95 -3.07657,-13.275 -4.4821,-18.5 -3.5481,-13.18991 -6.48625,-31.07782 -6.57015,-40 -0.12282,-13.06191 -0.91537,-13.00807 -7.35955,0.5 -11.07065,23.20588 -21.95634,44.57541 -23.2565,45.65445 -1.63181,1.35428 -1.66384,0.4478 -0.27048,-7.65445 1.35257,-7.86505 1.28615,-44.62744 -0.1093,-60.5 -0.60443,-6.875 -1.39937,-16.06402 -1.76654,-20.42003 -1.03369,-12.26345 -1.99975,-11.80925 -12.98983,6.10726 -18.09646,29.50164 -28.58613,50.4398 -37.16124,74.17655 -5.8637,16.2313 -7.32228,19.23805 -7.82773,16.13622 -1.11069,-6.81612 3.7735,-54.71596 6.83888,-67.06963 3.55945,-14.34483 3.53952,-13.94017 0.51382,-10.43037 -1.42242,1.65 -3.77515,5.025 -5.2283,7.5 -1.45314,2.475 -5.86385,9 -9.80158,14.5 -11.33808,15.83643 -14.27735,20.82873 -23.84484,40.5 -5.97296,12.28071 -9.14826,17.84241 -9.4453,16.54392 -0.62453,-2.73 1.5874,-12.04284 4.34039,-18.27428 6.83568,-15.4727 -2.90741,-2.39183 -13.60019,18.25933 -2.32438,4.4891 -3.38126,3.60966 -4.25331,-3.53922 -0.43541,-3.56936 -2.12291,-14.52578 -3.75,-24.3476 C 826.33126,814.82034 825,804.60939 825,801.95117 c 0,-5.00252 -1.52431,-7.44105 -2.66574,-4.26455 -0.35839,0.99736 -3.55408,8.78838 -7.10154,17.31338 -15.12246,36.3413 -19.38491,47.48935 -19.93573,52.14017 -1.14624,9.67824 -7.74701,-10.07107 -9.82302,-29.39017 -0.7212,-6.71146 -1.4932,-7.07745 -4.42989,-2.10014 -1.1844,2.00742 -4.82885,6.88424 -8.09877,10.83737 -7.38171,8.92403 -7.67514,7.69985 3.83821,16.01277 C 807.87538,884.94908 856,944.9446 856,961.25681 c 0,3.14191 3.72757,8.38771 6.89136,9.69819 8.18958,3.39223 9.7678,7.831 11.0496,31.0772 0.50138,9.0927 1.21856,17.7552 1.59373,19.25 C 876.21682,1024 876.21682,1024 452.10841,1024 132.6087,1024 28,1023.7157 28,1022.8474 Z M 278.03769,856.58702 c 5.20427,-2.97714 11.06959,-6.7602 13.03404,-8.4068 1.96445,-1.6466 8.48945,-6.24948 14.5,-10.22863 32.95098,-21.81447 33.69634,-25.47928 8.59135,-42.24247 -8.06469,-5.38498 -18.02929,-12.47541 -22.14355,-15.75651 -4.11425,-3.2811 -7.93925,-5.81681 -8.5,-5.63491 -3.47561,1.12742 -12.7886,34.27346 -16.48788,58.6823 -0.62516,4.125 -1.84149,11.19387 -2.70295,15.7086 -2.87758,15.08075 -0.88399,16.22644 13.70899,7.87842 z M 137.5,545 c 0.33992,-0.55 0.84303,-1 1.11803,-1 0.275,0 0.22189,0.45 -0.11803,1 -0.33992,0.55 -0.84303,1 -1.11803,1 -0.275,0 -0.22189,-0.45 0.11803,-1 z" />
   </g>
</svg>
